<svg version="1.1" id="Layer_1" xmlns="http://www.w3.org/2000/svg" xmlns:xlink="http://www.w3.org/1999/xlink" x="0px" y="0px"
	 width="100%" viewBox="0 0 627 472" enable-background="new 0 0 627 472" xml:space="preserve">
<path fill="#6DC8F5" opacity="1.000000" stroke="none" 
	d="
M42.272099,472.636597 
	C29.170063,473.000000 16.339504,472.936676 3.510803,473.062561 
	C1.385942,473.083435 0.560129,472.685577 0.975268,470.506805 
	C1.128442,469.702881 1.000000,468.845276 1.000000,468.012177 
	C1.000000,313.886322 1.024306,159.760406 0.874001,5.634695 
	C0.869810,1.336793 2.047124,0.903330 5.862963,0.905313 
	C211.641785,1.012258 417.420654,1.013892 623.199463,0.896153 
	C627.144775,0.893896 628.122131,1.533015 628.118347,5.697090 
	C627.977905,159.989456 627.981445,314.281982 628.105103,468.574371 
	C628.108276,472.490082 627.052002,473.174347 623.425842,473.094055 
	C611.934570,472.839569 600.434204,473.000000 588.468628,473.000000 
	C585.780518,470.235321 586.498840,466.945679 586.497681,463.848053 
	C586.461731,368.702301 586.468750,273.556549 586.468445,178.410812 
	C586.468323,154.582718 586.440063,130.754562 586.495117,106.926590 
	C586.504883,102.702042 585.915039,98.660378 584.441711,94.691689 
	C582.166016,88.561798 577.823242,84.650558 571.590393,83.216476 
	C563.141113,81.272438 554.514526,80.613312 545.834839,80.832039 
	C535.379089,81.095520 524.926086,81.087608 514.465210,80.972923 
	C505.503204,80.874680 496.524200,81.243416 487.563446,81.070442 
	C477.435181,80.874931 467.312347,81.097641 457.187164,81.005081 
	C448.386108,80.924629 439.580200,80.901436 430.779968,81.010048 
	C420.649353,81.135078 410.526886,80.989594 400.399048,80.860779 
	C391.102478,80.742538 381.797272,80.873672 372.501068,81.049530 
	C363.032593,81.228645 353.570282,80.881966 344.105011,81.056061 
	C334.145081,81.239243 324.184448,81.050140 314.224548,80.976395 
	C304.596252,80.905113 294.969482,81.138481 285.340057,81.001930 
	C276.375336,80.874802 267.406250,80.983788 258.442352,81.086243 
	C248.646484,81.198204 238.858765,80.828285 229.060928,80.948380 
	C219.436142,81.066345 209.804901,81.236443 200.175415,81.079628 
	C190.548264,80.922829 180.914322,80.859596 171.293167,81.035973 
	C161.173141,81.221504 151.063248,80.781303 140.935745,81.071053 
	C132.161728,81.322083 123.351845,81.161613 114.560158,81.072945 
	C105.100166,80.977547 95.641960,81.322815 86.179413,80.951424 
	C78.034515,80.631752 69.936020,81.070618 61.848103,82.455429 
	C49.826000,84.513847 44.334045,90.277138 43.593559,102.459419 
	C41.387718,138.749237 42.745121,175.074478 42.691948,211.381516 
	C42.667374,228.161804 42.609539,244.956131 42.910500,261.728851 
	C43.196693,277.679047 42.661854,293.624512 43.269566,309.583801 
	C43.685848,320.515961 42.676292,331.526276 42.617825,342.495758 
	C42.409130,381.652832 42.563995,420.811462 42.489510,459.969330 
	C42.481709,464.071381 44.517761,468.171783 42.272099,472.636597 
z"/>
<path fill="#FDFCFD" opacity="1.000000" stroke="none" 
	d="
M570.305664,472.602325 
	C525.312439,473.000000 480.624878,473.000000 435.468658,473.000000 
	C433.090302,468.526489 429.568634,467.545410 424.962128,467.551086 
	C347.976044,467.646027 270.989807,467.625214 194.003632,467.599579 
	C190.022018,467.598267 186.258926,467.700287 184.305725,472.626282 
	C142.979111,473.000000 101.958214,473.000000 60.468658,473.000000 
	C57.742279,470.270874 58.376320,466.985840 58.374023,463.884399 
	C58.335434,411.785736 58.347263,359.687012 58.347084,307.588318 
	C58.346954,269.138489 58.341591,230.688629 58.357243,192.238785 
	C58.358391,189.418640 58.126278,186.570496 59.195236,183.351807 
	C60.697231,181.081192 62.634552,180.658997 64.666641,180.477127 
	C66.660080,180.298691 68.661499,180.347458 70.660118,180.347427 
	C233.909622,180.344971 397.159119,180.343689 560.408630,180.359558 
	C563.389954,180.359848 566.419678,180.027008 569.737061,181.415344 
	C571.850586,183.837097 571.630798,186.403625 571.631653,188.879120 
	C571.663330,281.209229 571.661133,373.539368 571.637756,465.869476 
	C571.637207,468.025482 571.758789,470.224060 570.305664,472.602325 
z"/>
<path fill="#6BBDED" opacity="1.000000" stroke="none" 
	d="
M42.437500,473.000000 
	C39.790371,430.896332 41.402721,388.762177 41.123573,346.643616 
	C41.055328,336.346985 41.620644,325.980103 41.680130,315.695099 
	C41.744240,304.611267 41.162628,293.407928 41.360016,282.336700 
	C41.507294,274.076385 41.062092,265.762115 41.536411,257.446198 
	C41.972431,249.801819 41.360714,241.860703 41.353195,234.105515 
	C41.348526,229.294952 40.449158,224.371460 41.545185,219.436905 
	C42.158291,216.676575 41.035461,213.574814 41.030849,210.626373 
	C40.981865,179.296768 40.763554,147.963898 41.179039,116.639725 
	C41.274181,109.466606 41.150513,102.077011 43.449432,94.986115 
	C46.153267,86.646271 52.339451,82.196503 61.235786,80.848709 
	C69.896851,79.536583 78.622597,78.938210 87.217293,79.341331 
	C92.577515,79.592751 97.991539,79.319107 103.354599,79.575798 
	C108.629326,79.828255 114.172752,80.358154 119.453384,79.240944 
	C123.586212,78.366577 127.524063,79.813568 131.705612,79.472809 
	C136.805923,79.057167 142.156601,79.175552 147.402908,79.120956 
	C154.062180,79.051628 160.725586,79.384605 167.386398,79.399567 
	C172.719574,79.411530 178.112976,78.855003 183.536469,79.519066 
	C188.342117,80.107475 193.312210,79.628670 198.222534,79.772919 
	C205.025116,79.972748 211.922073,79.974030 218.669952,79.603142 
	C223.877975,79.316895 229.088806,79.822075 234.321411,79.298042 
	C240.288376,78.700455 246.397720,79.388069 252.436676,79.688385 
	C257.336487,79.932060 262.243713,79.629654 267.137726,79.708557 
	C273.945007,79.818336 280.868530,80.071419 287.578003,79.569878 
	C293.154663,79.153023 298.654572,79.982040 304.245270,79.469254 
	C309.795258,78.960205 315.635712,78.548187 321.370697,79.559540 
	C326.197418,80.410736 331.175873,79.667076 336.050446,79.690056 
	C343.035980,79.722992 350.074402,79.976410 357.005798,79.653915 
	C362.370972,79.404282 367.788239,80.845192 373.148865,79.209122 
	C376.794250,78.096542 380.468384,79.899315 384.401367,79.447533 
	C389.654755,78.844093 395.194153,78.831680 400.589386,79.154671 
	C407.095673,79.544182 413.671234,78.871078 420.050659,79.455597 
	C425.655975,79.969177 431.184662,78.196747 436.697418,79.731529 
	C440.398590,80.761955 444.210480,79.426079 447.911255,79.377701 
	C453.425873,79.305611 458.970520,80.448746 464.560516,79.417557 
	C469.694366,78.470520 475.032776,79.220085 480.245850,79.258636 
	C487.076050,79.309158 493.960480,78.937096 500.698914,79.372414 
	C506.094543,79.720978 511.484070,78.209473 516.849915,79.745056 
	C520.831787,80.884575 525.044006,79.586159 529.047607,79.513252 
	C534.366638,79.416389 539.782349,79.907478 545.189941,79.388626 
	C550.429321,78.885902 555.933594,78.817459 561.269043,79.877090 
	C563.862183,80.392090 566.416443,80.949348 569.115173,81.081688 
	C579.300232,81.581116 587.658508,91.240257 587.984680,102.606895 
	C588.075439,105.770599 587.999939,108.939095 587.999939,112.105392 
	C588.000000,232.091156 588.000000,352.076904 588.000000,472.531342 
	C585.958313,473.000000 583.916687,473.000000 581.437500,473.000000 
	C578.843567,470.426666 579.398804,467.313629 579.395325,464.367065 
	C579.355957,431.202454 579.371216,398.037720 579.371033,364.873047 
	C579.370544,280.544739 579.368835,196.216461 579.377502,111.888161 
	C579.377991,107.207237 579.247559,102.629669 577.209290,98.204803 
	C575.230286,93.908325 572.124817,91.300705 567.629822,90.245918 
	C563.239380,89.215652 558.796570,88.619301 554.264648,88.619598 
	C393.774231,88.629951 233.283844,88.626282 72.793442,88.633202 
	C70.792732,88.633286 68.790756,88.650383 66.805862,88.931770 
	C56.090527,90.450821 51.006786,96.606491 50.458725,107.477448 
	C48.704044,142.281906 49.856617,177.101517 49.685158,211.912064 
	C49.457783,258.074829 49.577278,304.239685 49.647263,350.403473 
	C49.694248,381.395477 49.564133,412.387146 49.615437,443.379059 
	C49.628403,451.211914 49.625687,459.040985 50.218475,466.857422 
	C50.356781,468.681152 50.548344,470.518524 49.293282,472.607941 
	C46.958332,473.000000 44.916668,473.000000 42.437500,473.000000 
z"/>
<path fill="#69B4E5" opacity="1.000000" stroke="none" 
	d="
M49.399994,473.000000 
	C46.960846,441.283051 48.131466,409.529694 48.063454,377.795319 
	C47.879627,292.020752 47.967922,206.245544 48.069820,120.470749 
	C48.076862,114.542831 48.631367,108.531258 49.721352,102.706436 
	C52.009418,90.479118 57.998310,88.490479 68.307686,87.025108 
	C69.451385,86.862541 70.637886,87.000130 71.804543,87.000130 
	C232.969666,86.999908 394.134796,87.010956 555.299927,86.935814 
	C559.343140,86.933929 563.255554,87.617027 567.133667,88.304382 
	C574.733521,89.651398 580.574768,97.046486 580.987488,105.067024 
	C581.055908,106.396873 580.999878,107.733177 580.999878,109.066498 
	C581.000000,230.065231 581.000000,351.063965 581.000000,472.531342 
	C579.611084,473.000000 578.222229,473.000000 576.416626,473.000000 
	C574.610718,470.799652 575.615845,468.430115 575.615173,466.164490 
	C575.581482,347.683990 575.585205,229.203491 575.588074,110.723000 
	C575.588135,108.195793 575.342468,105.743774 574.281250,102.954102 
	C573.793213,102.056038 573.547485,101.543678 573.306274,100.614304 
	C572.991028,95.015221 570.785034,93.335320 564.299866,93.736435 
	C563.370239,93.706825 562.842224,93.580315 561.932007,93.188316 
	C559.446228,92.175003 557.255615,92.428474 555.103149,92.428276 
	C395.122406,92.413414 235.141663,92.411888 75.160919,92.436630 
	C71.847374,92.437141 68.546707,92.375862 65.230469,93.131897 
	C57.702301,94.848190 53.825451,99.097420 53.654465,106.957520 
	C53.201973,127.758034 53.187393,148.561996 53.715286,169.829285 
	C53.969685,170.918549 54.028740,171.550049 53.972839,172.655136 
	C52.694134,179.850403 53.312622,186.672012 53.311996,193.418732 
	C53.311104,202.976852 52.902988,212.567017 53.945358,222.552628 
	C54.807041,228.690903 54.474297,234.409027 54.261749,240.564041 
	C53.908451,242.409637 53.524162,243.812729 54.140644,245.686127 
	C54.736454,257.735687 54.471176,269.351685 54.329903,281.419983 
	C54.114197,283.063721 53.904831,284.253357 54.258858,285.916931 
	C54.672554,323.291718 54.451138,360.207062 54.405540,397.563110 
	C54.233727,399.361023 53.573685,400.624542 53.719917,402.400757 
	C53.845379,403.295715 53.865070,403.810913 53.816650,404.712830 
	C53.430576,406.418945 53.810070,407.677948 54.200321,409.363434 
	C54.837727,429.214355 53.933884,448.670135 55.228916,468.547668 
	C54.930920,470.242493 54.454899,471.364410 53.299034,472.652283 
	C51.933331,473.000000 50.866661,473.000000 49.399994,473.000000 
z"/>
<path fill="#71A4CF" opacity="1.000000" stroke="none" 
	d="
M570.399963,473.000000 
	C570.043396,472.336395 570.124939,471.672791 570.124878,471.009186 
	C570.117615,374.990234 570.104370,278.971313 570.048096,182.486557 
	C568.186401,179.941727 568.417664,177.383102 568.412231,174.913864 
	C568.391357,165.454666 568.346008,155.995239 568.482544,146.058411 
	C568.566833,144.627258 568.583252,143.673447 568.555420,142.246033 
	C568.335022,135.488708 568.416809,129.203964 568.508301,122.443436 
	C568.626953,115.565735 567.720154,109.129646 569.425049,102.351036 
	C570.839417,100.999214 572.095154,100.927628 573.857910,101.738480 
	C575.856567,105.228630 575.985901,108.721176 575.986328,112.214493 
	C576.000916,229.620880 575.995178,347.027252 576.011230,464.433655 
	C576.011597,467.130554 575.880249,469.760315 574.287354,472.597595 
	C572.933289,473.000000 571.866638,473.000000 570.399963,473.000000 
z"/>
<path fill="#F4F3F4" opacity="1.000000" stroke="none" 
	d="
M184.468658,473.000000 
	C184.047989,466.228546 184.244720,466.006165 191.083466,466.005585 
	C270.077850,465.998871 349.072266,466.017548 428.066620,465.958099 
	C432.495239,465.954773 435.838867,466.549652 435.000000,472.575500 
	C351.645782,473.000000 268.291534,473.000000 184.468658,473.000000 
z"/>
<path fill="#71A4CF" opacity="1.000000" stroke="none" 
	d="
M59.908112,182.556519 
	C59.779507,277.197479 59.787033,371.390442 59.797249,465.583405 
	C59.797482,467.746552 59.827927,469.909698 59.922138,472.536438 
	C58.933331,473.000000 57.866661,473.000000 56.399994,473.000000 
	C55.324829,472.221222 54.957867,471.328827 55.000694,469.790405 
	C53.847759,347.825928 54.861599,226.354385 54.582253,104.397545 
	C55.089218,101.206421 54.392921,97.983604 58.251671,96.560730 
	C59.655941,97.026947 60.212742,97.798935 60.847733,99.108414 
	C62.080421,106.728844 61.394081,113.942757 61.486835,121.610718 
	C61.689198,129.343079 61.589439,136.605011 61.505180,144.336975 
	C61.653191,154.510437 61.549522,164.214355 61.524872,173.917938 
	C61.517738,176.726089 61.251400,179.507507 59.908112,182.556519 
z"/>
<path fill="#69AEDE" opacity="1.000000" stroke="none" 
	d="
M574.333313,473.000000 
	C575.789185,462.433044 574.953369,451.776276 574.959595,441.162140 
	C575.022583,334.428467 574.994385,227.694733 575.010925,120.961021 
	C575.011841,114.854279 575.040283,108.754723 574.026611,102.353767 
	C573.869568,101.833786 573.743958,101.663300 573.814087,101.242653 
	C577.142029,101.790619 576.079529,104.772644 576.846436,106.740120 
	C577.355835,108.047081 576.997437,109.699242 576.997437,111.196877 
	C577.000244,229.069000 576.999756,346.941101 577.001587,464.813232 
	C577.001587,467.302887 577.210999,469.815063 576.054077,472.584778 
	C575.555542,473.000000 575.111084,473.000000 574.333313,473.000000 
z"/>
<path fill="#69AEDE" opacity="1.000000" stroke="none" 
	d="
M55.683723,469.784882 
	C55.993084,470.755493 55.994667,471.503662 55.998123,472.625916 
	C55.250000,473.000000 54.500000,473.000000 53.375000,473.000000 
	C53.158192,472.137329 53.316387,471.274689 53.736069,470.205383 
	C54.382881,469.619141 54.842319,469.473602 55.683723,469.784882 
z"/>
<path fill="#F4F3F4" opacity="1.000000" stroke="none" 
	d="
M278.672852,203.258209 
	C329.021973,203.004990 379.040710,203.004501 429.527893,203.004868 
	C430.391937,203.440796 430.837891,203.800064 431.710663,203.975891 
	C434.718689,204.217255 435.009857,206.089569 435.009003,208.272308 
	C434.993958,246.424896 434.987732,284.577484 435.018127,322.730042 
	C435.020142,325.269958 434.247559,326.673584 431.481873,327.160187 
	C429.187744,327.563812 426.949799,328.016113 424.600006,328.015442 
	C347.461792,327.993744 270.323547,328.000793 193.185333,327.992828 
	C184.599533,327.991974 183.999634,327.379395 183.999542,319.057678 
	C183.999176,282.737732 183.984482,246.417786 184.032532,210.097900 
	C184.035767,207.648483 182.965195,204.387604 187.593658,204.009171 
	C190.229065,205.773926 190.309235,208.287445 190.351044,210.816452 
	C190.439178,216.147827 190.188065,221.484497 190.506119,226.809738 
	C190.602173,228.418137 190.526047,230.561890 192.472092,231.001663 
	C194.137131,231.377945 194.795563,229.427551 195.712540,228.303268 
	C196.648483,227.155777 197.335724,225.730301 199.434372,225.611023 
	C200.795471,226.472504 200.696320,227.517944 200.452637,228.958588 
	C198.560577,237.183197 202.135178,244.897537 209.248978,248.487122 
	C215.199371,251.489655 224.568634,249.564468 228.913376,244.446487 
	C233.898636,238.573975 234.160172,229.522400 229.574493,223.177429 
	C228.144302,221.198547 225.795761,219.821457 225.609863,216.689697 
	C229.108414,213.684113 233.450592,213.708344 237.265137,212.232147 
	C238.955292,211.578079 241.022766,211.500107 242.161118,209.994904 
	C245.404510,205.706161 249.918137,205.281006 254.682007,205.586014 
	C262.681396,206.098145 270.479431,204.466980 278.672852,203.258209 
z"/>
<path fill="#F4F3F4" opacity="1.000000" stroke="none" 
	d="
M183.587143,359.765503 
	C181.958252,353.555786 183.941940,347.650482 183.213806,341.726105 
	C182.545868,336.291565 184.492294,335.005615 189.875854,335.005127 
	C269.526184,334.997711 349.176605,335.036469 428.826721,334.909943 
	C433.633698,334.902313 435.116638,336.329651 435.094238,341.159271 
	C434.922607,378.150909 435.005890,415.143677 434.994110,452.136108 
	C434.992157,458.218781 434.198822,458.993439 428.008423,458.993988 
	C349.024628,459.001190 270.040802,459.001038 191.056992,458.994415 
	C184.666779,458.993866 184.005310,458.300049 184.002670,451.702301 
	C183.993835,429.706818 184.229935,407.707672 183.882523,385.717682 
	C183.748032,377.205261 183.317322,368.691223 183.587143,359.765503 
z"/>
<path fill="#D4D6DC" opacity="1.000000" stroke="none" 
	d="
M60.181152,182.852539 
	C57.790756,180.091644 60.151871,177.292526 60.045666,174.372818 
	C59.702156,164.929962 59.867634,155.468567 59.861534,145.551575 
	C61.770153,143.371109 64.118034,143.384552 66.438400,143.379547 
	C83.968987,143.341766 101.499611,143.328827 119.526443,143.480057 
	C123.181374,143.218674 126.346863,143.352386 129.509003,143.352249 
	C263.556854,143.346176 397.604675,143.346573 531.652527,143.349304 
	C533.650391,143.349335 535.649048,143.300049 538.133179,143.450989 
	C547.930786,143.363525 557.241272,143.302322 567.030029,143.628403 
	C568.149780,143.851791 568.745789,144.098526 569.687134,144.744629 
	C570.086975,157.051376 570.096619,169.067169 570.055542,181.551865 
	C401.824341,182.008316 233.643829,181.995651 65.463295,181.986877 
	C63.807953,181.986786 62.117344,181.798904 60.181152,182.852539 
z"/>
<path fill="#F8F7F8" opacity="1.000000" stroke="none" 
	d="
M200.296326,225.835205 
	C196.771851,226.962387 196.447830,230.454041 194.391647,232.498901 
	C192.144043,234.734116 191.083267,234.035065 190.075912,231.718048 
	C189.144989,229.576843 189.057602,227.292480 188.950500,224.965393 
	C188.641708,218.254990 189.987839,211.471542 188.053406,204.415863 
	C218.000870,201.804230 248.047348,203.690002 278.534241,203.003357 
	C278.848755,204.427399 277.960938,204.787888 276.638397,205.018555 
	C268.286560,206.475220 259.921997,207.543198 251.407257,207.029114 
	C248.150284,206.832458 245.023483,207.144852 243.727524,211.023499 
	C243.334595,212.199448 242.021896,212.567062 240.896713,212.855392 
	C236.110001,214.082031 231.309845,215.256134 226.256180,216.734375 
	C225.706970,217.342972 225.350235,217.541595 224.603882,217.555115 
	C223.539688,217.247742 222.855743,216.772568 221.710098,216.742188 
	C220.971329,216.718765 220.553116,216.636383 219.845154,216.354218 
	C217.608521,214.331497 215.644226,214.042770 213.364120,216.314178 
	C208.075577,218.416473 203.692780,221.164749 200.296326,225.835205 
z"/>
<path fill="#F0EEF1" opacity="1.000000" stroke="none" 
	d="
M478.746094,276.993896 
	C473.460999,276.993744 468.647125,276.958801 463.833984,277.003662 
	C459.380615,277.045227 457.001831,275.011139 457.004089,270.448364 
	C457.007019,264.472931 457.064789,258.496643 456.983337,252.522339 
	C456.932922,248.825638 458.493286,246.952377 462.300598,246.988480 
	C468.441467,247.046722 474.583649,247.044724 480.724609,246.991058 
	C484.539276,246.957733 486.075470,248.858429 486.025238,252.544586 
	C485.943817,258.518890 485.803223,264.504059 486.066437,270.467896 
	C486.290802,275.552399 484.042664,277.485840 478.746094,276.993896 
z"/>
<path fill="#F0EEF1" opacity="1.000000" stroke="none" 
	d="
M151.891876,263.003662 
	C153.539688,263.003204 154.731888,263.162323 155.866180,262.973572 
	C159.888031,262.304382 161.509186,264.767090 161.706696,268.010193 
	C161.930679,271.687775 159.009506,272.015320 156.151657,272.005463 
	C150.323532,271.985291 144.495285,271.999939 138.667099,271.999939 
	C122.348160,272.000031 106.028908,272.053162 89.710526,271.958130 
	C86.155891,271.937439 81.084793,273.420776 81.150864,267.375916 
	C81.212448,261.742065 86.025070,263.047974 89.464417,263.036743 
	C110.112656,262.969147 130.761230,263.003479 151.891876,263.003662 
z"/>
<path fill="#F0EEF1" opacity="1.000000" stroke="none" 
	d="
M126.000000,228.004272 
	C136.308487,228.004364 146.118011,228.084076 155.924866,227.957596 
	C158.998352,227.917984 161.536514,228.666473 161.572678,231.981125 
	C161.609329,235.338684 159.845657,237.120270 155.881317,237.088333 
	C132.940918,236.903488 109.998238,236.980392 87.056404,237.017868 
	C83.931602,237.022980 81.200356,236.522232 81.073631,232.728378 
	C80.937027,228.639175 83.715912,227.966064 87.097366,227.981262 
	C99.898018,228.038849 112.699089,228.004333 126.000000,228.004272 
z"/>
<path fill="#F0EEF1" opacity="1.000000" stroke="none" 
	d="
M143.992630,307.000000 
	C124.863235,306.999969 106.232399,306.977783 87.601715,307.019867 
	C84.170830,307.027618 80.934402,306.766510 81.082237,302.274567 
	C81.219406,298.106445 84.368843,297.980133 87.559296,297.984589 
	C110.182343,298.016052 132.805984,298.077850 155.428024,297.923401 
	C159.054718,297.898651 161.634735,298.934692 161.518539,302.571686 
	C161.413605,305.856781 158.679657,307.070404 155.469788,307.013885 
	C151.811310,306.949463 148.150848,306.999634 143.992630,307.000000 
z"/>
<path fill="#F0EEF1" opacity="1.000000" stroke="none" 
	d="
M81.063171,319.939697 
	C81.743568,316.790863 83.659248,315.976746 86.293129,315.980103 
	C109.790749,316.010132 133.288544,316.034302 156.785934,315.955170 
	C159.982529,315.944397 161.664841,317.626312 161.736969,320.327881 
	C161.804916,322.872437 159.696381,324.365143 157.238129,324.911987 
	C156.282272,325.124573 155.246643,324.993408 154.247345,324.993530 
	C132.416183,324.996216 110.584816,324.946533 88.754082,325.042328 
	C85.034592,325.058624 82.192444,324.250610 81.063171,319.939697 
z"/>
<path fill="#F0EEF1" opacity="1.000000" stroke="none" 
	d="
M90.154556,280.995819 
	C111.949326,280.996155 133.263824,280.990662 154.578323,281.004486 
	C157.682144,281.006500 161.422699,280.234009 160.982788,285.384583 
	C160.567764,290.243896 156.563934,290.125977 153.531601,289.737183 
	C150.394272,289.334930 147.291748,289.012848 144.142853,289.008636 
	C126.526802,288.985199 108.943390,290.677307 91.313377,290.010620 
	C89.151283,289.928833 87.038887,289.928345 84.935417,289.169586 
	C82.701210,288.363647 80.833176,287.267609 81.130714,284.668518 
	C81.452660,281.856110 83.528061,280.913116 86.177536,280.993103 
	C87.342087,281.028290 88.508636,280.997192 90.154556,280.995819 
z"/>
<path fill="#F0EEF1" opacity="1.000000" stroke="none" 
	d="
M83.086960,246.630249 
	C87.393021,245.537689 91.397179,246.038071 95.373001,246.025299 
	C115.186615,245.961578 135.000549,245.988327 154.814362,246.005600 
	C157.747818,246.008163 161.104416,245.277985 161.034088,250.123550 
	C160.968750,254.626251 157.853851,253.995880 155.070999,253.997635 
	C132.426636,254.011810 109.782249,253.994537 87.137924,254.022751 
	C84.894928,254.025543 82.720596,253.991913 81.508408,251.713806 
	C80.486008,249.792343 81.155396,248.187683 83.086960,246.630249 
z"/>
<path fill="#F4F3F4" opacity="1.000000" stroke="none" 
	d="
M104.006882,219.998047 
	C97.353729,220.687531 91.342110,218.746002 85.200409,218.954697 
	C83.124557,219.025253 81.780067,217.756973 81.160988,215.855286 
	C79.102684,209.532654 83.012375,204.125992 89.485603,203.968536 
	C97.860916,203.764816 106.234352,203.408203 114.601624,202.980789 
	C118.913498,202.760529 121.038971,204.257584 121.069344,208.915756 
	C121.138008,219.444687 120.736382,219.988144 109.980698,219.997925 
	C108.153160,219.999573 106.325615,219.998001 104.006882,219.998047 
z"/>
<path fill="#F0EEF1" opacity="1.000000" stroke="none" 
	d="
M486.734406,211.714203 
	C487.615967,216.576904 486.168396,221.056793 486.785919,225.738449 
	C487.439575,230.694061 484.660675,232.951492 479.663818,232.988632 
	C474.850311,233.024414 470.036255,233.005783 465.222504,232.994049 
	C458.367767,232.977341 457.118011,231.744797 457.008270,224.894775 
	C456.981659,223.235321 457.009247,221.575012 457.015747,219.461731 
	C464.493744,214.523209 472.528229,211.171646 480.444702,207.603973 
	C483.916168,206.039505 485.545807,208.437256 486.734406,211.714203 
z"/>
<path fill="#F0EEF1" opacity="1.000000" stroke="none" 
	d="
M495.680847,206.070374 
	C511.891296,206.017059 527.668091,206.030106 543.444702,205.985474 
	C546.629578,205.976471 549.770569,206.103333 549.915588,210.264374 
	C550.071655,214.742813 546.862366,215.033264 543.425781,215.022186 
	C528.313416,214.973419 513.200806,214.976990 498.088470,215.025040 
	C495.623840,215.032883 493.138397,214.889771 492.329651,212.222031 
	C491.532318,209.591949 492.608582,207.358063 495.680847,206.070374 
z"/>
<path fill="#F0EEF1" opacity="1.000000" stroke="none" 
	d="
M502.111938,249.999390 
	C515.879333,249.999435 529.164429,249.999451 542.449524,249.999542 
	C544.271423,249.999542 546.135986,249.814606 547.741760,250.953552 
	C549.545776,252.233109 550.420776,254.043549 549.728394,256.135132 
	C549.028320,258.249573 547.246521,259.029846 545.004333,259.015961 
	C537.033569,258.966614 529.062378,258.998444 521.091309,258.998871 
	C513.618469,258.999298 506.145477,258.974609 498.672791,259.010406 
	C495.551880,259.025360 492.165558,259.061432 492.160278,254.858383 
	C492.155304,250.871155 494.903015,249.556610 498.642395,249.982651 
	C499.626038,250.094711 500.633240,249.999451 502.111938,249.999390 
z"/>
<path fill="#F0EEF1" opacity="1.000000" stroke="none" 
	d="
M500.205872,229.997360 
	C498.406799,229.977600 497.055511,230.107712 495.755646,229.906235 
	C493.272766,229.521378 491.994171,227.947922 492.032074,225.423035 
	C492.070099,222.891418 493.417511,221.124985 495.899719,221.094299 
	C506.860260,220.958801 517.823425,221.007568 528.785461,221.036972 
	C531.439941,221.044098 532.026428,222.819733 532.001404,225.087051 
	C531.965210,228.366287 530.334900,229.984039 527.087097,229.989243 
	C520.110840,230.000397 513.134583,229.995422 506.158295,229.996933 
	C504.331177,229.997330 502.504028,229.997299 500.205872,229.997360 
z"/>
<path fill="#F0EEF1" opacity="1.000000" stroke="none" 
	d="
M492.808533,266.828186 
	C494.407501,264.850250 496.271423,264.990662 498.109924,264.992401 
	C507.595001,265.001251 517.080139,265.010742 526.565125,264.987671 
	C529.343384,264.980896 531.979309,264.819489 532.037781,268.874542 
	C532.094116,272.779175 529.780334,273.048584 526.815918,273.029694 
	C516.832092,272.966064 506.846527,272.921631 496.863708,273.043060 
	C492.403534,273.097290 491.146973,271.203033 492.808533,266.828186 
z"/>
<path fill="#F4F3F4" opacity="1.000000" stroke="none" 
	d="
M486.986237,211.589874 
	C483.423004,206.039093 479.469086,209.524719 475.284485,211.259262 
	C469.385681,213.704361 464.148956,217.639191 457.399658,219.000183 
	C457.013672,215.694275 457.191528,212.366989 456.955292,209.069397 
	C456.662506,204.982559 458.721527,203.151566 462.424103,203.060013 
	C468.717133,202.904434 475.025055,202.811508 481.310822,203.073624 
	C486.373688,203.284744 487.277679,206.936325 486.986237,211.589874 
z"/>
<path fill="#F8F7F8" opacity="1.000000" stroke="none" 
	d="
M431.831818,203.754715 
	C431.091797,205.098450 430.471985,204.835709 430.028473,203.297211 
	C430.552094,203.173828 431.107880,203.341934 431.831818,203.754715 
z"/>
<path fill="#6EA9D6" opacity="1.000000" stroke="none" 
	d="
M562.584839,92.722115 
	C563.446350,92.995735 563.890259,92.995987 564.667114,92.995834 
	C566.969727,93.222252 569.197449,93.216988 567.575439,96.586075 
	C564.781616,97.859100 562.256226,97.640343 559.770874,97.640579 
	C396.221832,97.656128 232.672791,97.655716 69.123749,97.641434 
	C66.637985,97.641220 64.111618,97.852463 61.327412,96.520889 
	C59.948574,93.341034 62.019981,93.231339 63.889744,93.042336 
	C68.190010,92.607643 72.475250,91.999565 76.813683,91.999634 
	C236.782867,92.002213 396.752075,92.001976 556.721252,92.013893 
	C558.541809,92.014030 560.394409,91.779701 562.584839,92.722115 
z"/>
<path fill="#69AEDE" opacity="1.000000" stroke="none" 
	d="
M562.909485,92.600006 
	C401.461273,92.996986 239.920074,92.976257 78.378983,93.091034 
	C72.632858,93.095116 66.684258,92.995033 61.136612,95.832336 
	C61.135296,96.463203 61.176067,96.682594 60.982609,97.141411 
	C60.318913,97.532227 59.884178,97.557388 59.194855,97.211197 
	C55.536777,97.352516 56.056122,99.940514 55.995644,102.598404 
	C54.497005,104.897980 55.024605,107.145195 55.019970,109.259087 
	C54.979488,127.728119 55.020233,146.197327 54.965786,164.666290 
	C54.959614,166.758850 55.604259,169.028122 53.484688,170.942841 
	C51.363190,169.525269 52.031269,167.565704 52.029537,165.816269 
	C52.010033,146.074142 52.061848,126.331963 52.078094,106.589783 
	C52.085720,97.327194 58.190197,91.654526 68.922318,91.016365 
	C70.250771,90.937370 71.587730,90.999748 72.920753,90.999748 
	C234.050079,90.999458 395.179382,90.993996 556.308716,91.057755 
	C558.465820,91.058609 560.999390,89.901314 562.909485,92.600006 
z"/>
<path fill="#6EA9D6" opacity="1.000000" stroke="none" 
	d="
M53.004936,171.332733 
	C54.626713,169.528320 53.968178,167.581635 53.972324,165.839691 
	C54.018070,146.614380 53.977776,127.388840 54.042049,108.163635 
	C54.047676,106.481560 53.176865,104.450706 55.599426,103.089706 
	C55.995590,225.019882 55.996704,347.044128 55.994659,469.537842 
	C55.548466,470.004852 55.105431,470.002380 54.329979,469.999329 
	C52.646324,449.661926 53.060760,429.296295 53.002014,408.469788 
	C53.010696,407.200592 53.008099,406.399933 53.006508,405.299011 
	C53.004265,404.554871 53.004002,404.110962 53.003918,403.334137 
	C53.011044,402.200562 53.008156,401.399902 53.006233,400.299011 
	C53.003689,361.978638 53.003242,323.958527 53.002983,285.469788 
	C53.005890,284.556244 53.006962,284.111237 53.004482,283.332520 
	C53.002689,270.645172 53.002796,258.291595 53.003166,245.469376 
	C53.010921,244.200272 53.008144,243.399780 53.006126,242.299088 
	C53.003689,235.978378 53.003387,229.957840 53.003441,223.469086 
	C53.003834,206.648346 52.965187,190.295822 53.003891,173.471344 
	C53.004833,172.554947 53.004631,172.110504 53.004936,171.332733 
z"/>
<path fill="#69AEDE" opacity="1.000000" stroke="none" 
	d="
M52.708145,173.293732 
	C53.317162,173.560745 53.903847,174.123276 53.901459,174.683304 
	C53.833626,190.592178 54.480263,206.506424 53.298786,222.705170 
	C52.688984,222.438721 52.098068,221.875839 52.099560,221.314529 
	C52.141773,205.405426 51.328022,189.489746 52.708145,173.293732 
z"/>
<path fill="#69AEDE" opacity="1.000000" stroke="none" 
	d="
M568.196045,96.432770 
	C568.166199,94.311592 566.566895,94.141960 565.212585,93.261177 
	C569.719543,91.427269 574.023621,93.945869 574.268799,98.786285 
	C573.727173,99.324867 573.373230,99.522835 572.642822,99.592316 
	C571.928894,99.445862 571.555542,99.264297 570.964478,98.837692 
	C570.409729,98.381638 570.101746,98.112320 569.554565,97.654236 
	C568.987061,97.222282 568.675415,96.959435 568.196045,96.432770 
z"/>
<path fill="#6EA9D6" opacity="1.000000" stroke="none" 
	d="
M571.679810,98.779022 
	C572.456604,98.994644 572.899536,98.996674 573.674927,98.999504 
	C574.006958,99.443085 574.006592,99.885857 574.007935,100.660561 
	C574.007263,101.161095 574.004700,101.329704 573.998657,101.751289 
	C573.057556,102.001724 572.119934,101.999184 570.830688,101.996277 
	C569.460449,101.858543 569.335938,101.087219 569.334595,99.889587 
	C569.546997,99.274780 569.686890,99.050285 570.190979,98.668976 
	C570.818665,98.529915 571.082275,98.547676 571.679810,98.779022 
z"/>
<path fill="#69AEDE" opacity="1.000000" stroke="none" 
	d="
M52.754131,242.182602 
	C54.050323,242.710571 54.193893,243.592422 53.251892,244.816406 
	C51.950619,244.290558 51.805683,243.408340 52.754131,242.182602 
z"/>
<path fill="#69AEDE" opacity="1.000000" stroke="none" 
	d="
M52.754234,400.182556 
	C54.050137,400.710541 54.193840,401.592438 53.252426,402.816711 
	C51.950832,402.291107 51.805511,401.408783 52.754234,400.182556 
z"/>
<path fill="#69AEDE" opacity="1.000000" stroke="none" 
	d="
M52.754585,405.182434 
	C54.050602,405.711212 54.193867,406.593292 53.250698,407.816986 
	C51.950184,407.290070 51.805134,406.407806 52.754585,405.182434 
z"/>
<path fill="#69AEDE" opacity="1.000000" stroke="none" 
	d="
M52.776924,283.144684 
	C53.704273,283.423523 54.027473,283.947845 53.227806,284.854858 
	C52.298382,284.577393 51.972885,284.053375 52.776924,283.144684 
z"/>
<path fill="#EFEEF0" opacity="1.000000" stroke="none" 
	d="
M570.065552,98.716110 
	C570.158386,99.794823 570.201782,100.540215 570.362061,101.640762 
	C570.362122,108.356339 570.245239,114.716774 570.065430,121.542824 
	C567.427063,124.154716 564.316833,123.602448 561.372009,123.604805 
	C516.903931,123.640343 472.435883,123.628464 427.967834,123.628700 
	C362.847961,123.629044 297.728058,123.628845 232.608170,123.628632 
	C230.942703,123.628624 229.277130,123.639900 227.611786,123.620850 
	C218.817490,123.520279 217.724319,122.436562 217.358124,113.472260 
	C217.049179,105.909370 215.915253,104.672600 208.515472,104.655685 
	C182.034622,104.595139 155.553513,104.592697 129.072678,104.658005 
	C122.180008,104.675003 121.207451,105.726639 120.617836,112.806297 
	C119.905434,121.360069 117.615547,123.563622 109.029243,123.606018 
	C95.039581,123.675102 81.049416,123.642525 67.059525,123.611649 
	C64.906837,123.606903 62.706707,123.752853 60.342567,122.281555 
	C59.891144,114.650566 59.834351,107.310234 59.777870,99.504044 
	C59.936020,98.442703 60.175224,97.887054 60.788246,97.191742 
	C61.001415,96.973457 61.059177,96.608696 61.076851,96.426254 
	C229.754669,96.246574 398.414795,96.249344 567.544189,96.219276 
	C568.492554,96.334610 568.971558,96.482788 569.570801,96.853439 
	C569.823242,97.505615 569.931641,97.941246 570.065552,98.716110 
z"/>
<path fill="#FDFCFD" opacity="1.000000" stroke="none" 
	d="
M59.889435,122.457474 
	C77.099190,121.993774 94.250465,122.009705 111.401695,121.991859 
	C116.829094,121.986214 118.810974,120.008591 118.994972,114.521584 
	C119.050743,112.858170 118.874893,111.177605 119.043106,109.529175 
	C119.468285,105.362671 121.308525,102.926987 126.052528,102.945312 
	C154.693085,103.055916 183.334488,103.054359 211.975082,102.946739 
	C216.728775,102.928879 218.491058,105.405693 218.976334,109.557327 
	C219.033981,110.050529 218.989655,110.555519 218.994537,111.055038 
	C219.115204,123.390854 217.276520,121.983063 230.368256,121.986176 
	C343.267029,122.013054 456.165802,122.006424 569.533508,122.009117 
	C570.047363,128.361557 570.092285,134.714661 570.073364,141.532593 
	C569.122009,142.625305 569.045715,143.756485 568.210449,144.765610 
	C558.642456,144.992386 549.289795,145.003983 539.468567,145.005615 
	C538.091858,143.872223 537.946167,142.643707 538.799438,140.942291 
	C540.844971,139.389969 542.937256,139.549622 544.851379,139.036621 
	C546.879517,138.493027 548.665039,137.570709 548.861023,135.182755 
	C549.055481,132.813599 548.002502,131.007996 545.960510,129.787354 
	C544.632080,128.993225 543.154358,128.779007 541.647400,128.685822 
	C539.650696,128.562317 537.651184,128.598877 535.652710,128.598862 
	C397.233856,128.597107 258.815033,128.596222 120.396194,128.604416 
	C117.569717,128.604584 114.702423,128.324463 111.936806,129.050232 
	C108.931786,129.838837 106.720619,131.585434 107.105141,135.027008 
	C107.480621,138.387680 109.870934,139.788498 113.018639,139.960114 
	C114.997971,140.068039 117.000565,139.462494 119.408142,140.335617 
	C120.958542,141.588242 121.022110,142.826996 120.273636,144.582703 
	C100.280830,145.004974 80.562851,145.014832 60.365471,145.056747 
	C59.867687,137.700546 59.849308,130.312302 59.889435,122.457474 
z"/>
<path fill="#F8F7F8" opacity="1.000000" stroke="none" 
	d="
M568.341736,144.994888 
	C568.063477,143.849243 567.809387,142.569153 569.665405,142.050034 
	C570.054321,142.756592 570.099121,143.515762 570.110596,144.655243 
	C569.614319,145.026718 569.151367,145.017868 568.341736,144.994888 
z"/>
<path fill="#D4D6DC" opacity="1.000000" stroke="none" 
	d="
M60.659534,96.946365 
	C60.786022,97.560791 60.570625,98.148132 60.066704,98.886826 
	C59.522835,98.546371 59.267490,98.054565 58.979275,97.274963 
	C59.403488,96.964539 59.860569,96.941902 60.659534,96.946365 
z"/>
<path fill="#E3E4E7" opacity="1.000000" stroke="none" 
	d="
M418.982483,265.683777 
	C421.462158,267.724091 421.463135,270.111603 420.583008,272.321838 
	C419.632233,274.709381 417.189728,273.977417 415.284302,273.978119 
	C344.985870,274.004089 274.687439,273.995026 204.388992,274.016846 
	C201.370514,274.017792 198.522919,273.859772 198.072800,270.044891 
	C197.752731,267.332275 199.036789,265.520355 201.805283,265.090454 
	C203.108597,264.888031 204.464417,265.008331 205.796432,265.008301 
	C274.928772,265.005798 344.061127,265.002808 413.193481,265.024139 
	C415.005219,265.024689 416.816864,265.293549 418.982483,265.683777 
z"/>
<path fill="#E3E4E7" opacity="1.000000" stroke="none" 
	d="
M396.000000,291.008545 
	C332.342102,291.008392 269.184235,291.008301 206.026352,291.007782 
	C204.693207,291.007751 203.355957,290.934723 202.027817,291.015015 
	C199.458817,291.170258 198.355667,289.640503 198.112991,287.443909 
	C197.854065,285.100311 199.235565,283.659851 201.410339,283.138000 
	C202.519348,282.871826 203.730621,283.003296 204.895676,283.003235 
	C274.885956,282.998627 344.876221,282.998962 414.866486,282.998962 
	C415.366425,282.998962 415.868683,283.032288 416.365875,282.995667 
	C419.383392,282.773712 421.102203,283.788208 421.034576,287.190552 
	C420.970795,290.398834 419.214508,291.055725 416.496979,291.028229 
	C409.831909,290.960754 403.165710,291.007660 396.000000,291.008545 
z"/>
<path fill="#E3E4E7" opacity="1.000000" stroke="none" 
	d="
M245.310272,232.285385 
	C244.598145,219.548431 245.100510,219.008331 257.176025,219.006897 
	C279.648651,219.004242 302.121277,218.999390 324.593903,219.006927 
	C331.790375,219.009338 331.998199,219.226151 332.005432,226.176025 
	C332.007172,227.840652 331.966400,229.506119 332.006134,231.169739 
	C332.071991,233.927597 330.690735,235.020325 328.013123,235.017563 
	C302.044800,234.990845 276.076447,234.991898 250.108109,235.024948 
	C248.095764,235.027512 246.542389,234.413635 245.310272,232.285385 
z"/>
<path fill="#E3E4E7" opacity="1.000000" stroke="none" 
	d="
M343.997437,309.001282 
	C297.337067,309.001495 251.176163,309.001923 205.015259,309.000458 
	C203.682358,309.000427 202.344238,309.051544 201.017624,308.954712 
	C198.274704,308.754578 197.300049,306.657318 197.235458,304.472626 
	C197.175293,302.437408 198.842392,301.313904 200.873993,301.047363 
	C201.530731,300.961182 202.204727,300.993317 202.870819,300.993317 
	C254.531036,300.991516 306.191254,300.984955 357.851471,301.004547 
	C362.285675,301.006256 364.033447,302.873718 362.760345,306.133636 
	C361.939117,308.236603 360.243713,309.048248 357.994934,309.016846 
	C353.496429,308.953979 348.996338,309.000092 343.997437,309.001282 
z"/>
<path fill="#E3E4E7" opacity="1.000000" stroke="none" 
	d="
M223.689789,216.800232 
	C224.445465,216.998718 224.889008,217.004135 225.665161,217.014465 
	C230.185577,221.871964 234.570602,226.310532 234.150269,233.764938 
	C233.567444,244.101135 227.037796,250.698380 216.580780,251.086716 
	C204.830811,251.523041 199.988342,243.064102 198.124252,234.115875 
	C197.846573,232.782898 198.620590,231.230850 198.954803,229.391663 
	C206.382355,224.474030 214.393600,221.176285 222.362793,216.997910 
	C222.904770,216.733246 223.141190,216.670197 223.689789,216.800232 
z"/>
<path fill="#E3E4E7" opacity="1.000000" stroke="none" 
	d="
M267.798950,239.995117 
	C272.039673,239.665222 275.443481,239.979492 275.941437,244.802231 
	C276.325653,248.523102 275.149109,251.031326 270.855774,251.011826 
	C263.858154,250.980042 256.860291,251.016129 249.862595,250.994370 
	C246.230194,250.983078 244.973557,248.913010 244.973816,245.515564 
	C244.974060,242.134506 246.187958,240.026550 249.833511,240.008835 
	C255.664841,239.980499 261.496368,239.997360 267.798950,239.995117 
z"/>
<path fill="#E3E4E7" opacity="1.000000" stroke="none" 
	d="
M329.052368,239.995117 
	C333.689514,239.996445 337.837830,240.006180 341.986084,239.996765 
	C346.318146,239.986938 346.967773,242.693481 347.065521,246.292374 
	C347.170013,250.141220 345.397247,251.135986 341.915039,251.053497 
	C335.115662,250.892456 328.308594,250.929382 321.507172,251.038666 
	C318.401733,251.088547 316.893951,249.992645 316.962250,246.712845 
	C317.027679,243.571594 316.981842,240.463058 321.100952,240.062515 
	C323.567352,239.822678 326.074585,240.003403 329.052368,239.995117 
z"/>
<path fill="#E3E4E7" opacity="1.000000" stroke="none" 
	d="
M289.199463,239.995117 
	C295.302979,239.996246 300.939240,240.151154 306.562836,239.950317 
	C311.136078,239.787003 310.968018,242.654282 311.053284,245.833679 
	C311.143921,249.213654 310.328369,251.187958 306.393738,251.056808 
	C300.438385,250.858307 294.471069,250.966095 288.509613,251.022598 
	C284.691803,251.058792 280.898315,251.241394 281.003693,245.732651 
	C281.104675,240.451981 284.388062,239.531784 289.199463,239.995117 
z"/>
<path fill="#EFEEF0" opacity="1.000000" stroke="none" 
	d="
M222.929688,216.752533 
	C222.737900,217.584610 222.615601,218.536148 222.191666,218.698105 
	C214.487076,221.641205 207.677292,226.531662 199.379333,228.996506 
	C199.316513,228.213196 199.631500,227.423248 199.967712,226.313080 
	C201.873993,219.966125 206.715805,217.564606 212.616272,215.992462 
	C214.961472,214.529144 217.042435,214.370285 219.618805,215.716446 
	C220.450668,215.986771 220.893463,215.988647 221.668365,215.990387 
	C222.348862,216.057663 222.631729,216.234482 222.929688,216.752533 
z"/>
<path fill="#E3E4E7" opacity="1.000000" stroke="none" 
	d="
M256.000000,423.001221 
	C238.501663,423.001190 221.503265,422.980804 204.505020,423.019104 
	C201.287537,423.026337 198.164978,422.839661 198.079102,418.660767 
	C197.986237,414.141602 201.279358,413.981079 204.683807,413.982239 
	C274.177032,414.005981 343.670227,413.994507 413.163452,414.016937 
	C416.835236,414.018127 420.901520,413.640228 420.996368,419.192261 
	C421.037689,421.612854 420.033752,422.992981 417.484131,422.985809 
	C416.151031,422.982056 414.817841,423.000519 413.484711,423.000549 
	C361.156464,423.001343 308.828247,423.001221 256.000000,423.001221 
z"/>
<path fill="#E3E4E7" opacity="1.000000" stroke="none" 
	d="
M387.000000,396.998199 
	C396.992554,396.998444 406.485138,397.001892 415.977692,396.996613 
	C418.377960,396.995270 420.706512,396.862244 421.016632,400.289093 
	C421.321259,403.655457 419.650024,405.291077 416.668549,405.850525 
	C415.216095,406.123077 413.681549,405.987183 412.184174,405.987305 
	C344.403931,405.992493 276.623688,405.988281 208.843460,406.008423 
	C206.334122,406.009155 203.921692,405.675903 201.460449,405.152985 
	C199.074036,404.645996 197.854309,403.661591 198.036255,401.195770 
	C198.224289,398.647675 199.643539,397.247467 202.146378,397.042145 
	C203.635696,396.919952 205.142166,397.000977 206.640930,397.000946 
	C266.593964,396.999298 326.546967,396.998810 387.000000,396.998199 
z"/>
<path fill="#F8F7F8" opacity="1.000000" stroke="none" 
	d="
M203.222763,377.712433 
	C202.616638,381.433136 196.595108,387.705353 193.471542,387.923981 
	C191.774368,388.042816 190.436111,387.472626 190.138107,385.676788 
	C189.759735,383.396637 188.928940,381.238159 188.951630,378.835114 
	C189.060135,367.348175 189.124542,355.857544 188.932327,344.372772 
	C188.865967,340.407623 190.521393,338.984528 194.215164,338.988678 
	C220.187927,339.017670 246.160858,338.973114 272.133392,339.052704 
	C275.087189,339.061768 277.950989,340.353363 280.999237,340.038910 
	C282.087036,339.926697 283.511963,339.781616 283.739807,341.419281 
	C283.912842,342.662872 282.734497,342.969116 281.944824,343.528351 
	C277.343628,346.786896 271.855835,347.555145 266.604126,348.965881 
	C265.651489,349.221802 264.582520,349.062958 264.071045,350.611816 
	C261.638580,353.097839 258.796722,352.259766 255.719086,352.240509 
	C251.841766,352.017670 247.897644,350.632782 246.203827,355.889648 
	C245.983414,356.681976 245.776138,357.101349 245.259521,357.744629 
	C244.328796,358.686371 243.429321,359.259674 242.996964,360.079407 
	C241.124023,363.630249 238.394470,364.497101 234.396545,363.001953 
	C231.702072,360.579010 231.226593,357.092499 229.094528,354.561829 
	C227.509171,352.680084 226.068863,350.650421 223.258606,349.702515 
	C221.315689,348.304504 219.560913,347.362000 217.085327,347.377563 
	C211.728378,348.204224 207.032440,349.879303 203.778259,353.925079 
	C199.242477,359.564209 198.340591,365.798462 201.839752,372.390991 
	C202.677734,373.969788 203.933685,375.421692 203.222763,377.712433 
z"/>
<path fill="#E3E4E7" opacity="1.000000" stroke="none" 
	d="
M292.000000,431.996002 
	C313.315002,431.995819 334.129974,431.995361 354.944977,431.996826 
	C356.277039,431.996918 357.613556,431.946198 358.940094,432.035980 
	C360.994690,432.174988 362.335602,433.315125 362.860779,435.288696 
	C363.408600,437.347046 362.445831,438.638000 360.771362,439.860321 
	C358.943298,441.194733 357.003937,440.986328 355.039398,440.986816 
	C305.083435,440.998932 255.127457,440.996338 205.171494,440.996246 
	C204.505417,440.996246 203.839310,440.997406 203.173248,440.993530 
	C199.660599,440.973053 197.163956,439.223663 197.199081,435.760681 
	C197.234131,432.303436 200.200958,431.974915 203.077988,431.977844 
	C232.551971,432.007965 262.026001,431.996216 292.000000,431.996002 
z"/>
<path fill="#E3E4E7" opacity="1.000000" stroke="none" 
	d="
M253.644897,351.035034 
	C257.029602,350.998993 260.058411,350.995544 263.540619,350.986267 
	C284.604980,350.984985 305.217255,351.115662 325.825928,350.899933 
	C330.602844,350.849976 332.247498,352.275787 332.101044,357.128052 
	C331.768829,368.133423 332.957397,366.980835 322.089233,366.991364 
	C299.982269,367.012726 277.875305,366.997223 255.768326,366.996185 
	C246.745514,366.995758 246.745514,366.994904 245.293396,358.268890 
	C245.013123,357.559204 245.012939,357.118774 245.011810,356.347992 
	C246.679474,352.543518 250.168457,352.113678 253.644897,351.035034 
z"/>
<path fill="#EFEEF0" opacity="1.000000" stroke="none" 
	d="
M203.257584,377.998932 
	C202.805054,374.661621 199.732040,372.698120 199.046387,369.540070 
	C196.980957,360.026947 200.688065,352.344330 209.668671,348.197296 
	C211.746765,347.237701 214.034256,346.731567 216.610794,346.010803 
	C218.526520,347.515167 220.908279,347.165527 222.754547,348.761871 
	C227.409973,348.370300 228.746796,352.225311 230.680634,354.719727 
	C232.308594,356.819550 233.748138,359.361084 234.006897,362.618835 
	C234.017059,362.995117 234.002594,362.999512 233.999466,363.000366 
	C228.339264,365.660858 222.572571,368.072815 216.956711,370.836670 
	C212.660416,372.951141 208.341431,374.929016 204.385742,378.084900 
	C203.854340,377.999573 203.683838,377.999329 203.257584,377.998932 
z"/>
<path fill="#E3E4E7" opacity="1.000000" stroke="none" 
	d="
M273.219666,382.713379 
	C265.502289,382.913055 258.192322,382.903870 250.884369,383.021088 
	C247.379852,383.077301 245.099106,382.037079 244.983719,378.055298 
	C244.871323,374.177307 246.333130,371.295166 250.347351,371.107849 
	C257.145142,370.790649 263.969788,370.949707 270.780487,371.065613 
	C273.058319,371.104401 275.286499,372.332794 275.731049,374.507751 
	C276.303833,377.310150 276.912445,380.566864 273.219666,382.713379 
z"/>
<path fill="#E3E4E7" opacity="1.000000" stroke="none" 
	d="
M321.512390,371.018341 
	C328.434204,371.007355 334.908447,371.102509 341.378204,370.973145 
	C345.813538,370.884460 347.090851,373.154022 347.055939,377.193787 
	C347.022278,381.096161 345.574371,383.086029 341.490326,383.021942 
	C335.351440,382.925537 329.209290,382.948334 323.069702,383.019775 
	C320.183868,383.053314 317.444214,382.665863 317.135406,379.239777 
	C316.835754,375.915222 315.946625,371.924774 321.512390,371.018341 
z"/>
<path fill="#E3E4E7" opacity="1.000000" stroke="none" 
	d="
M204.228882,378.278198 
	C205.926346,375.259491 208.274536,373.118835 211.503418,371.982300 
	C218.894043,369.380920 225.111084,363.937134 233.596497,363.002747 
	C234.001221,373.784668 229.406433,379.989319 219.711945,382.629761 
	C213.757874,384.251404 209.259964,380.900146 204.228882,378.278198 
z"/>
<path fill="#E3E4E7" opacity="1.000000" stroke="none" 
	d="
M295.037109,371.004883 
	C299.003723,371.005981 302.481812,371.021667 305.959747,371.004456 
	C310.263885,370.983124 311.068542,373.626587 311.049286,377.252869 
	C311.030365,380.816315 309.858551,383.011597 305.955322,383.000397 
	C299.661774,382.982330 293.368164,383.006836 287.074615,382.991394 
	C283.548309,382.982727 281.516205,381.109741 281.046539,377.708771 
	C280.521851,373.909882 282.407715,371.624756 286.115295,371.193237 
	C288.896027,370.869568 291.735321,371.049286 295.037109,371.004883 
z"/>
<path fill="#F8F7F8" opacity="1.000000" stroke="none" 
	d="
M538.641479,140.678864 
	C539.007874,142.079773 539.004761,143.140198 539.000793,144.598114 
	C399.645355,145.004791 260.290710,145.013977 120.467438,145.009125 
	C119.997253,143.934845 119.995705,142.874588 119.991638,141.416626 
	C121.378784,139.519897 123.248749,139.504288 125.075760,139.402542 
	C126.905891,139.300629 128.740158,139.346008 130.572678,139.345993 
	C263.189240,139.344711 395.805786,139.340881 528.422363,139.367874 
	C531.720642,139.368546 535.106812,138.836426 538.641479,140.678864 
z"/>
<path fill="#EFEEF0" opacity="1.000000" stroke="none" 
	d="
M85.497681,155.007263 
	C90.263756,154.996201 94.579704,155.062927 98.892456,154.974014 
	C101.872330,154.912582 103.048424,156.267654 103.031799,159.186981 
	C102.957039,172.311951 104.310120,172.227188 91.062134,171.993546 
	C89.403168,171.964294 87.743126,171.971146 86.083862,171.988190 
	C82.876587,172.021133 81.071701,170.552979 81.026207,167.246567 
	C80.991959,164.757889 81.017624,162.268356 81.018715,159.779205 
	C81.019913,157.058594 82.289879,155.409409 85.497681,155.007263 
z"/>
<path fill="#F4F3F4" opacity="1.000000" stroke="none" 
	d="
M219.948822,215.637665 
	C217.961685,215.988007 215.915497,215.991104 213.430664,215.989349 
	C214.930252,212.165314 217.250870,212.146378 219.948822,215.637665 
z"/>
<path fill="#F4F3F4" opacity="1.000000" stroke="none" 
	d="
M223.250946,217.000168 
	C222.677658,216.895721 222.416336,216.705978 222.108551,216.210815 
	C222.913574,214.900696 223.532303,215.167480 223.970490,216.702148 
	C223.835052,216.995438 223.668182,216.997574 223.250946,217.000168 
z"/>
<path fill="#D4D6DC" opacity="1.000000" stroke="none" 
	d="
M570.339233,99.038567 
	C569.439087,98.710434 568.990051,98.261467 569.510315,97.252991 
	C570.016479,97.229897 570.341919,97.383881 570.824829,97.762787 
	C571.115173,98.153709 571.247986,98.319710 571.196472,98.745911 
	C571.012146,99.006119 570.563538,99.027710 570.339233,99.038567 
z"/>
<path fill="#71A4CF" opacity="1.000000" stroke="none" 
	d="
M571.262512,99.003510 
	C570.992737,98.836868 570.973328,98.667610 570.968140,98.243027 
	C571.309814,98.090546 571.577148,98.278748 571.898987,98.772461 
	C571.846680,98.995377 571.679810,98.998138 571.262512,99.003510 
z"/>
<path fill="#D4D6DC" opacity="1.000000" stroke="none" 
	d="
M82.755783,113.246384 
	C79.919228,110.366684 81.050209,108.230370 83.322388,106.209618 
	C85.773315,104.029884 88.145470,105.039352 89.980362,106.836372 
	C91.739464,108.559166 91.381866,110.793732 89.782875,112.672081 
	C87.806137,114.994164 85.632256,116.068268 82.755783,113.246384 
z"/>
<path fill="#D4D6DC" opacity="1.000000" stroke="none" 
	d="
M68.268906,107.271103 
	C70.670235,104.583878 72.833344,104.291710 75.249222,106.724358 
	C77.177414,108.665924 77.464615,110.456581 75.829056,112.816025 
	C74.340714,114.963089 72.425621,115.813309 70.420235,114.472282 
	C68.132698,112.942574 65.924522,110.842308 68.268906,107.271103 
z"/>
<path fill="#D4D6DC" opacity="1.000000" stroke="none" 
	d="
M103.245605,113.246689 
	C100.131294,116.270111 97.920692,114.783539 95.964279,112.377853 
	C94.270233,110.294815 95.014366,108.464287 96.738251,106.745201 
	C98.456795,105.031441 100.278313,104.262726 102.369102,105.965935 
	C104.772820,107.924042 106.270630,110.127037 103.245605,113.246689 
z"/>
<path fill="#F0EEF1" opacity="1.000000" stroke="none" 
	d="
M539.448975,141.015335 
	C399.650330,141.014923 260.289581,141.010483 120.458992,141.012482 
	C118.166397,141.037766 116.396179,141.135101 114.573700,141.593689 
	C110.147148,142.707474 105.644470,139.921494 105.022682,135.979904 
	C104.306259,131.438446 107.372383,127.573166 112.171150,127.034477 
	C113.158363,126.923653 114.167343,127.001274 115.166290,127.001266 
	C257.024078,127.000687 398.881836,127.000938 540.739624,127.001198 
	C542.896423,127.001198 545.069153,126.812363 547.046753,128.022736 
	C550.275269,129.998749 551.601746,132.966919 550.838074,136.526031 
	C550.144592,139.757950 547.376160,140.750244 544.380920,140.978745 
	C542.890808,141.092407 541.385437,141.006790 539.448975,141.015335 
z"/>
<path fill="#F4F3F4" opacity="1.000000" stroke="none" 
	d="
M253.772949,350.747650 
	C251.643097,353.331543 247.910660,353.328217 245.352844,355.957825 
	C245.019165,349.794586 250.025528,351.292053 253.772949,350.747650 
z"/>
<path fill="#F4F3F4" opacity="1.000000" stroke="none" 
	d="
M222.941559,348.643616 
	C221.062134,348.187164 218.616211,348.677338 217.061279,346.357513 
	C219.200302,346.142334 221.403427,346.282288 222.941559,348.643616 
z"/>
</svg>